<?xml version="1.0" encoding="UTF-8"?>
<svg id="Layer_4" data-name="Layer 4" xmlns="http://www.w3.org/2000/svg" xmlns:xlink="http://www.w3.org/1999/xlink" viewBox="0 0 1326.54 904.57">
  <defs>
    <style>
      .cls-1 {
        clip-path: url(#clippath);
      }

      .cls-2 {
        fill: none;
      }
    </style>
    <clipPath id="clippath">
      <rect class="cls-2" x="11.77" y="416.14" width="1314.77" height="471.59"/>
    </clipPath>
  </defs>
  <g class="cls-1">
    <path d="m924.6,704.82c0-37.89,24.39-57.4,51.02-57.4,24.01,0,51.77,17.63,51.77,57.78,0,30.76-18.76,58.15-51.77,58.15s-51.02-25.14-51.02-58.53m-27.76,0c0,54.77,36.39,82.54,75.78,82.54,27.39,0,44.27-14.63,53.28-26.26v21.76h27.01v-155.7h-27.01v22.14c-7.13-9.38-23.26-25.89-53.28-25.89-39.77,0-75.78,27.76-75.78,81.41m-66.4-77.66h-27.01v155.7h27.01v-82.16c0-25.51,4.5-36.02,9-42.02,4.13-5.25,10.88-9.75,21.76-9.75,4.13,0,9.75,1.12,15.76,5.25l12.76-24.39c-6.75-3.38-15.76-6.38-24.01-6.38-21.01,0-32.64,16.51-35.27,20.63v-16.88Zm-198.84,78.41c0-37.52,26.64-58.15,51.77-58.15s51.02,20.26,51.02,58.53c0,31.14-19.13,57.4-50.65,57.4s-52.15-25.89-52.15-57.78m1.5-78.41h-27.01v241.99h27.01v-108.05c11.63,15.01,29.26,26.26,54.4,26.26,47.27,0,74.66-38.64,74.66-81.41s-27.01-82.54-75.78-82.54c-11.26,0-34.89,2.63-53.28,25.51v-21.76ZM89.62,460.92c0,15.92-12.91,28.83-28.83,28.83s-28.83-12.91-28.83-28.83,12.91-28.83,28.83-28.83,28.83,12.91,28.83,28.83m5.85,375.89c0,18.1-14.68,32.78-32.78,32.78s-32.78-14.68-32.78-32.78c0-18.11,14.68-32.78,32.78-32.78s32.78,14.68,32.78,32.78m309.37-289.99c1.54-4.44,2.69-8.16,2.56-8.31l-.23-.27-6.87-8.14c-.12-.17-.37-.49-.56-.71l-4.18-4.9-4.15-4.92c-.12-.15-.4-.45-.61-.67l-6.91-8.11-.23-.27c-.13-.15-3.99.37-8.62,1.17l-13.91,2.4c-.23.04-.41.11-.62.17-3.51-2.91-7.14-5.69-10.87-8.33,0-.14.02-.27,0-.41l-1.17-14.07c-.39-4.68-.85-8.55-1.03-8.64l-.32-.16-9.58-4.65c-.17-.11-.53-.3-.8-.43l-5.81-2.78-5.79-2.81c-.17-.09-.55-.25-.83-.36l-9.61-4.6-.32-.16c-.18-.09-3.49,1.96-7.4,4.57l-11.74,7.84c-.23.15-.4.32-.6.48-6.1-1.7-12.32-3.08-18.66-4.13-.09-.19-.15-.36-.26-.55l-7.17-12.16c-2.39-4.05-4.48-7.33-4.68-7.33h-.36l-10.65-.03c-.2-.02-.61-.04-.91-.04l-6.44.02-6.44-.02c-.2,0-.6.01-.91.04l-10.65.03h-.36c-.2,0-2.29,3.28-4.68,7.33l-7.17,12.16c-.21.35-.34.68-.48,1.02-6.18,1.12-12.25,2.54-18.19,4.27-.24-.2-.45-.4-.73-.59l-11.74-7.84c-3.91-2.61-7.22-4.66-7.4-4.57l-.32.16-9.61,4.6c-.19.07-.56.23-.83.36l-5.79,2.81-5.81,2.78c-.18.08-.54.27-.8.43l-9.58,4.65-.32.16c-.18.09-.64,3.95-1.03,8.64l-1.17,14.07c-.05.53-.03,1.02.01,1.49-4.19,3.06-8.23,6.31-12.13,9.71l-31.36-31.36c4.79-7.13,7.58-15.7,7.58-24.93,0-24.73-20.05-44.78-44.78-44.78-24.73,0-44.78,20.05-44.78,44.78,0,24.73,20.05,44.78,44.78,44.78,7.48,0,14.52-1.86,20.72-5.1l32.12,32.12c-4.48,5-8.66,10.27-12.55,15.76-.47-.05-.96-.06-1.5-.01l-14.07,1.17c-4.68.39-8.55.85-8.64,1.03l-.16.32-4.65,9.58c-.11.17-.3.53-.43.8l-2.78,5.81-2.81,5.79c-.09.17-.25.55-.36.83l-4.6,9.61-.16.32c-.09.18,1.96,3.49,4.57,7.4l7.84,11.74c.39.58.81,1.04,1.24,1.43-1.56,5.68-2.85,11.47-3.84,17.36-.51.17-1.04.4-1.59.72l-12.16,7.17c-4.05,2.39-7.33,4.48-7.33,4.68v.36l-.03,10.65c-.02.2-.04.61-.04.91l.02,6.44-.02,6.44c0,.2.01.6.04.91l.03,10.65v.36c0,.2,3.28,2.29,7.33,4.68l12.16,7.17c.67.39,1.3.63,1.92.8,1.05,5.84,2.39,11.57,3.99,17.19-.42.39-.83.84-1.21,1.41l-7.84,11.74c-2.61,3.91-4.66,7.22-4.57,7.4l.16.32,4.6,9.61c.07.19.23.56.36.83l2.81,5.79,2.78,5.81c.08.18.27.54.43.8l4.65,9.58.16.32c.09.18,3.95.64,8.64,1.03l14.07,1.17c.79.07,1.47,0,2.1-.13,2.66,3.67,5.46,7.22,8.39,10.67l-24.44,24.44c-7.02-3.65-14.99-5.72-23.45-5.72-28.12,0-50.92,22.8-50.92,50.92s22.8,50.92,50.92,50.92,50.92-22.8,50.92-50.92c0-10.33-3.08-19.93-8.37-27.96l23.33-23.33c4.48,3.95,9.16,7.68,14.02,11.18-.08.56-.12,1.16-.06,1.83l1.17,14.07c.39,4.68.85,8.55,1.03,8.64l.32.16,9.58,4.65c.27.15.62.35.8.43l5.81,2.78,5.79,2.81c.27.13.64.29.83.36l9.61,4.6.32.16c.18.09,3.49-1.96,7.4-4.57l11.74-7.84c.57-.38,1.03-.79,1.42-1.22,5.69,1.6,11.5,2.92,17.41,3.95.17.47.39.96.69,1.46l7.17,12.16c2.39,4.05,4.48,7.33,4.68,7.33h.36l10.65.03c.31.02.71.04.91.04l6.44-.02,6.44.02c.3,0,.7-.02.91-.04l10.65-.03h.36c.2,0,2.3-3.28,4.68-7.33l7.17-12.16c.28-.48.5-.95.66-1.4,6.04-1.05,11.98-2.41,17.8-4.06.29.26.58.52.94.76l11.74,7.84c3.91,2.61,7.22,4.66,7.4,4.57l.32-.16,9.61-4.6c.29-.11.66-.27.83-.36l5.79-2.81,5.81-2.78c.27-.13.63-.32.8-.43l9.58-4.65.32-.16c.18-.09.64-3.95,1.03-8.64l1.17-14.07c.04-.46.02-.86-.01-1.27,4.82-3.47,9.46-7.17,13.91-11.09l2.33.41c.25.07.46.16.73.21l13.87,2.63c4.62.87,8.47,1.46,8.6,1.31l.24-.27,7.04-7.99c.22-.21.5-.51.63-.66l4.23-4.85,4.26-4.83c.2-.22.45-.54.57-.71l7-8.03.24-.27c.13-.15-.95-3.89-2.43-8.35l-4.42-13.41c-.81-2.47-2.32-3.74-4.04-3.83,0-.02.02-.03.03-.05h-41.37c-26.14,35.35-68.1,58.28-115.44,58.28-57.09,0-106.39-33.33-129.52-81.59l-9.07-24.54c-3.22-11.93-4.96-24.47-4.96-37.42,0-79.28,64.27-143.55,143.55-143.55,50.03,0,94.06,25.61,119.76,64.41h40.27c-2.05-4.14-4.27-8.17-6.63-12.12.04-.11.1-.18.13-.29l4.64-13.33Zm-148.35,151.95c0,16.65-13.5,30.15-30.15,30.15s-30.15-13.5-30.15-30.15,13.5-30.15,30.15-30.15,30.15,13.5,30.15,30.15m271.57-71.61v90.79c0,10.88,0,23.64-7.5,33.39-4.13,5.25-12.38,12-27.39,12s-23.26-6.75-27.39-12c-7.5-9.75-7.5-22.51-7.5-33.39v-34.85h-187.85c-6.45-18.15-23.73-31.17-44.09-31.17-25.87,0-46.83,20.97-46.83,46.83s20.97,46.83,46.83,46.83c21.04,0,38.8-13.88,44.71-32.98h160.21v8.32c0,19.13,1.88,33.39,14.26,46.9,13.88,14.63,32.27,19.51,47.65,19.51s33.77-4.88,47.65-19.51c12.38-13.51,14.26-27.76,14.26-46.9v-93.79h-27.01Zm603.64-26.75h42.57v-29.53h-42.57s-.41,0-.41,0v-33.16h-27.02v33.16h-575.98v29.53h575.98v182.61h27.02v-.16h.41v-182.45Zm163.95,87.53h-91.54c4.13-23.26,22.89-40.52,45.77-40.52s41.27,16.13,45.77,40.52m27.76,22.51c.75-20.63-4.88-44.65-14.63-58.53-9.38-13.51-28.51-28.51-58.9-28.51-46.9,0-75.41,36.02-75.41,82.54,0,57.78,39.39,81.41,76.91,81.41,19.88,0,37.52-6.38,51.77-19.13,8.67-6.99,20.95-22.95,23.4-31.55h-29.47c-4.91,7.37-6.31,9.41-13.44,15.42-9,7.5-19.13,11.25-31.89,11.25-27.01,0-49.15-20.63-49.52-52.9h121.18Z"/>
  </g>
</svg>