<?xml version="1.0" encoding="UTF-8"?>
<svg id="Layer_1" data-name="Layer 1" xmlns="http://www.w3.org/2000/svg" xmlns:xlink="http://www.w3.org/1999/xlink" viewBox="0 0 972.61 904.57">
  <defs>
    <style>
      .cls-1 {
        fill: url(#linear-gradient-2);
      }

      .cls-2 {
        clip-path: url(#clippath-1);
      }

      .cls-3 {
        clip-path: url(#clippath);
      }

      .cls-4 {
        fill: none;
      }

      .cls-5 {
        fill: url(#linear-gradient);
      }
    </style>
    <clipPath id="clippath">
      <path class="cls-4" d="m36.38,806.59c.08-33.69,27.1-61.06,60.37-61.14,33.26-.08,60.17,27.17,60.09,60.86-.08,33.69-27.11,61.06-60.37,61.14h-.14c-33.2,0-60.02-27.21-59.94-60.86m797.81-258.62c.07-29.63,23.84-53.71,53.1-53.78,29.26-.07,52.92,23.9,52.85,53.53-.07,29.63-23.84,53.71-53.1,53.78h-.12c-29.2,0-52.79-23.94-52.73-53.53m-411.56,116.55s-.04,0-.05,0c-64.07-3.01-120.03-36.99-153.58-87.6h.51s0-.02-.01-.02h69.04l.09-23.11v-42.55h0l.56-50.34,93.1,94.69,93.18-94.47v92.9l.27,23.63h70.04c-33.1,49.48-87.66,82.54-150.12,86.65-.36.02-.71.06-1.06.08-3.4.2-6.81.32-10.25.35-.69.01-1.37.07-2.06.07h-.29c-3.15,0-6.26-.14-9.37-.29m-176.42-134.5c-1.85-5.54-3.44-11.19-4.82-16.94h5.37c-6.79-19.28-10.53-39.93-10.53-61.44,0-104.93,87.7-190,195.89-190s195.89,85.06,195.89,190c0,21.51-3.74,42.16-10.53,61.44h6.28c-1.42,5.81-3.05,11.54-4.95,17.15h-43.42l-26.63-28.58-4.67-19.16v-108.55l-110.81,113.16-126.07-126.43h0v42.86h-10.15v16.02l6.53,77.34-15.07,33.18-42.28-.05ZM41.76,107.14c.07-29.63,23.84-53.71,53.1-53.77,29.26-.07,52.92,23.89,52.85,53.52-.07,29.63-23.84,53.71-53.09,53.78h-.13c-29.2,0-52.79-23.94-52.72-53.53M94.92,23.69c-45.44.1-82.36,37.5-82.47,83.52-.11,46.02,36.64,83.24,82.08,83.14,13.75-.03,26.69-3.52,38.09-9.58l58.87,59.62c-8.24,9.33-15.94,19.15-23.13,29.37-.86-.08-1.77-.1-2.76-.02l-25.85,2.24c-8.61.75-15.71,1.62-15.87,1.96l-.29.6-8.59,17.85c-.2.32-.55.99-.79,1.49l-5.14,10.82-4.58,9.53v-2.31h-10.1v23.76h.08c.18.81,3.76,6.67,8.32,13.61l14.35,21.81c.71,1.08,1.48,1.93,2.27,2.67-2.89,10.58-5.28,21.36-7.14,32.32-.94.31-1.91.75-2.92,1.35l-22.38,13.39c-7.45,4.46-13.49,8.37-13.49,8.74v.67s-.1,19.82-.1,19.82c-.04.38-.07,1.13-.07,1.69v11.98s-.05,11.98-.05,11.98c0,.36.02,1.12.06,1.69v19.82s0,.67,0,.67c0,.37,6.02,4.26,13.45,8.68l22.31,13.29c1.23.73,2.39,1.17,3.52,1.47,1.91,10.86,4.34,21.52,7.26,31.98-.77.73-1.53,1.58-2.23,2.64l-12.8,19.38v-7.54h-10.09v23.76h.04s-.03.06-.02.07l.29.6,8.42,17.85c.13.36.42,1.05.66,1.55l5.14,10.77,5.09,10.79c.15.33.5,1,.78,1.49l8.51,17.81.29.6c.16.33,7.26,1.17,15.86,1.88l25.84,2.12c1.45.12,2.7,0,3.87-.24,4.88,6.81,10,13.42,15.37,19.82l-45,45.58c-12.88-6.76-27.51-10.58-43.05-10.55-51.67.12-93.64,42.64-93.76,94.96v.4c.09,52.01,41.6,94.04,92.95,94.13h.38c51.67-.12,93.64-42.64,93.76-94.96.04-19.22-5.58-37.07-15.25-51.98l42.96-43.51c8.21,7.34,16.79,14.25,25.7,20.74-.15,1.04-.22,2.16-.12,3.4l2.1,26.18c.7,8.71,1.53,15.9,1.86,16.06l.6.29,17.58,8.62c.48.29,1.14.64,1.47.79l10.66,5.15,10.63,5.21c.49.24,1.18.54,1.53.67l17.63,8.52.59.29c.33.16,6.42-3.66,13.62-8.53l21.61-14.64c1.05-.71,1.89-1.48,2.61-2.27,10.45,2.95,21.12,5.38,31.97,7.27.3.88.72,1.79,1.26,2.72l13.12,22.6c4.37,7.52,8.2,13.62,8.57,13.62h.66s19.57,0,19.57,0c.56.04,1.31.07,1.67.06l11.83-.06h11.83c.55,0,1.3-.03,1.67-.07l19.57-.09h.66c.37,0,4.23-6.12,8.63-13.66l13.23-22.67c.52-.9.92-1.77,1.22-2.62,11.11-1.99,22.02-4.54,32.72-7.63.53.48,1.06.96,1.72,1.41l21.54,14.54c7.17,4.84,13.25,8.63,13.58,8.47l.6-.29,17.67-8.6c.53-.21,1.21-.51,1.53-.68l10.65-5.26,10.68-5.2c.5-.24,1.16-.6,1.48-.8l17.62-8.7.6-.29c.33-.16,1.2-7.36,1.93-16.08l2.22-26.19c.07-.85.03-1.61-.01-2.36,8.87-6.47,17.41-13.38,25.6-20.69l4.27.75c.45.13.85.3,1.35.39l25.47,4.83c8.48,1.61,15.55,2.69,15.79,2.41l.43-.5,12.98-14.9c.41-.4.92-.95,1.15-1.23l7.8-9.05,7.84-9.01c.36-.42.84-1.01,1.05-1.32l12.9-14.97.44-.51s.02-.17,0-.4v-23.38h-7.08l-5.39-16.68c-1.49-4.59-4.26-6.95-7.41-7.11.02-.03.04-.06.05-.09l-76,.18c-48.18,65.89-125.37,108.74-212.34,108.94-104.89.25-195.32-61.57-237.61-151.27l35.06-.08c38.64,71.48,113.65,119.82,199.96,119.62,85.66-.2,160.36-48.2,199.58-118.97h178.55c11.74,31.33,41.52,53.61,76.63,53.52,45.44-.11,82.36-37.5,82.47-83.52.11-46.02-36.64-83.24-82.08-83.14-39.32.09-72.22,28.12-80.44,65.49l-98.45.23h-56.84c6.06-20.74,9.37-42.67,9.42-65.37.1-43.2-11.54-83.58-31.82-118.13v14.72c-34.89-71.62-110.02-121.19-197.11-121.19-120.36,0-217.93,94.64-217.93,211.38,0,3.88.15,7.73.36,11.56l-9.72-11.53c-.05,22.26,1.94,58.6,7.69,78.95l-32.22-.59c-5.62-21.77-8.67-44.59-8.62-68.17.34-147.53,118.69-267.39,264.35-267.73,91.91-.22,172.7,47.24,219.74,119.34l55.4-.13h0s18.52.01,18.52.01v-.06h.06s-.04-.07-.06-.11v-23.72l-6.89-13.34,3.66-10.73c2.65-7.68,4.64-14.13,4.73-15.24h.06v-23.75h-6.31v16.01l-6.76-8.12c-.21-.31-.67-.91-1.02-1.33l-7.65-9.1-7.61-9.14c-.23-.28-.73-.84-1.13-1.24l-12.66-15.06-.42-.51c-.24-.28-7.33.71-15.84,2.22l-25.57,4.52c-.42.07-.75.21-1.14.31-6.44-5.41-13.09-10.55-19.93-15.45,0-.27.03-.49,0-.77l-2.1-26.17c-.7-8.72-1.53-15.91-1.86-16.07l-.59-.29-17.58-8.62c-.32-.2-.98-.56-1.47-.79l-10.66-5.15-10.63-5.21c-.32-.16-1-.46-1.53-.67l-17.63-8.52-.59-.29c-.33-.16-6.42,3.66-13.62,8.53l-21.61,14.64c-.42.29-.73.6-1.1.9-11.19-3.13-22.63-5.67-34.27-7.59-.17-.34-.27-.67-.47-1.02l-13.12-22.6c-4.37-7.52-8.2-13.62-8.57-13.62h-.66s-19.57,0-19.57,0c-.37-.04-1.12-.07-1.67-.06l-11.83.06h-11.83c-.36,0-1.11.02-1.67.07l-19.57.1h-.66c-.37,0-4.23,6.12-8.63,13.66l-13.23,22.66c-.38.65-.62,1.27-.89,1.9-11.36,2.1-22.52,4.78-33.44,8.03-.43-.37-.82-.75-1.34-1.1l-21.54-14.54c-7.17-4.84-13.25-8.63-13.58-8.47l-.6.29-17.67,8.61c-.35.13-1.04.43-1.53.67l-10.65,5.26-10.68,5.2c-.33.15-.99.51-1.48.8l-17.63,8.7-.59.29c-.33.16-1.2,7.36-1.93,16.07l-2.21,26.18c-.09.99-.06,1.9.02,2.77-7.71,5.71-15.14,11.78-22.33,18.13l-57.48-58.22c8.82-13.28,14-29.25,14.04-46.42.11-45.95-36.54-83.14-81.89-83.14h-.2"/>
    </clipPath>
    <linearGradient id="linear-gradient" x1="-14.73" y1="953.66" x2="-12.25" y2="953.66" gradientTransform="translate(-184049.05 3025.49) rotate(90) scale(193.5 -193.5)" gradientUnits="userSpaceOnUse">
      <stop offset="0" stop-color="#25408f"/>
      <stop offset="1" stop-color="#171040"/>
    </linearGradient>
    <clipPath id="clippath-1">
      <path class="cls-4" d="m36.38,782.9c.08-33.69,27.11-61.07,60.37-61.14,33.26-.08,60.17,27.17,60.09,60.86-.08,33.69-27.1,61.07-60.37,61.14h-.14c-33.2,0-60.03-27.22-59.95-60.86m797.81-258.63c.07-29.63,23.84-53.71,53.1-53.78,29.26-.07,52.92,23.89,52.85,53.53-.07,29.63-23.84,53.71-53.1,53.78h-.13c-29.2,0-52.79-23.94-52.72-53.53m-411.56,116.55h-.05c-64.07-3.01-120.03-36.99-153.58-87.6h.51s0-.01-.01-.02h69.13v-65.66h0l.56-50.34,93.1,94.69,93.18-94.47v116.52h70.3c-33.1,49.48-87.66,82.54-150.12,86.65-.36.02-.71.06-1.06.08-3.39.2-6.81.32-10.25.35-.69,0-1.37.07-2.06.07h-.22c-3.17,0-6.3-.14-9.43-.29m-176.42-134.49c-6.72-20.14-10.41-41.7-10.36-64.17.01-5.5.3-10.94.75-16.33,6.22-79.08,58-145.16,128.8-171.25,21.15-7.89,43.98-12.23,67.79-12.29,108.74-.26,196.68,88.82,196.43,198.95-.01,6.66-.39,13.23-1.05,19.72-.11,1.18-.25,2.36-.38,3.54-.15,1.23-.3,2.46-.46,3.69-1.73,13.25-4.78,26.06-8.95,38.35l-47.44,1.06v-179.12l-138.09,134.93-140.4-134.93v177.93l-46.64-.08ZM41.76,83.46c.07-29.63,23.84-53.71,53.1-53.78,29.26-.07,52.92,23.9,52.85,53.53-.07,29.63-23.84,53.71-53.09,53.78h-.13c-29.2,0-52.79-23.94-52.72-53.53M94.92,0C49.48.11,12.56,37.5,12.45,83.52c-.11,46.02,36.64,83.24,82.08,83.14,13.75-.03,26.69-3.52,38.09-9.59l58.87,59.62c-8.24,9.33-15.94,19.15-23.13,29.37-.86-.08-1.77-.1-2.76-.02l-25.85,2.25c-8.61.75-15.71,1.62-15.87,1.96l-.29.6-8.59,17.85c-.2.32-.55.99-.79,1.49l-5.14,10.82-5.19,10.79c-.17.32-.46,1.02-.67,1.55l-8.49,17.9-.29.6c-.16.33,3.58,6.49,8.36,13.75l14.35,21.82c.71,1.08,1.48,1.93,2.27,2.66-2.89,10.58-5.28,21.36-7.14,32.33-.94.31-1.91.74-2.92,1.35l-22.38,13.39c-7.45,4.46-13.49,8.37-13.49,8.74v.67s-.1,19.82-.1,19.82c-.04.38-.07,1.14-.07,1.69v11.98s-.05,11.98-.05,11.98c0,.36.02,1.12.06,1.69v19.82s0,.67,0,.67c0,.37,6.02,4.25,13.45,8.68l22.31,13.29c1.23.73,2.4,1.16,3.52,1.47,1.91,10.85,4.34,21.52,7.26,31.98-.77.73-1.53,1.57-2.23,2.64l-14.45,21.88c-4.81,7.28-8.58,13.46-8.43,13.79l.29.6,8.41,17.85c.13.36.42,1.05.66,1.55l5.14,10.77,5.09,10.79c.15.33.5,1,.78,1.49l8.51,17.81.29.6c.16.33,7.26,1.18,15.86,1.88l25.84,2.12c1.45.12,2.7,0,3.87-.24,4.88,6.81,10,13.42,15.37,19.82l-45,45.57c-12.88-6.76-27.51-10.58-43.05-10.55-51.66.12-93.64,42.64-93.76,94.96v.4c.09,52.14,41.8,94.25,93.33,94.13,51.67-.12,93.64-42.64,93.76-94.96.04-19.22-5.58-37.07-15.25-51.98l42.96-43.51c8.21,7.34,16.79,14.25,25.7,20.74-.15,1.04-.22,2.16-.12,3.4l2.1,26.18c.7,8.71,1.53,15.91,1.86,16.07l.59.29,17.58,8.61c.49.29,1.15.64,1.47.79l10.66,5.15,10.63,5.21c.49.24,1.18.54,1.53.67l17.63,8.52.59.29c.33.16,6.42-3.66,13.62-8.53l21.61-14.64c1.05-.71,1.89-1.48,2.61-2.27,10.45,2.95,21.12,5.38,31.97,7.27.3.88.72,1.79,1.26,2.72l13.12,22.6c4.37,7.52,8.2,13.62,8.57,13.62h.66s19.57,0,19.57,0c.56.04,1.31.07,1.67.06l11.83-.06h11.83c.55,0,1.3-.03,1.67-.07l19.57-.1h.66c.37,0,4.23-6.12,8.63-13.66l13.23-22.66c.52-.9.92-1.77,1.22-2.62,11.11-1.99,22.02-4.54,32.72-7.63.53.48,1.06.97,1.72,1.42l21.54,14.54c7.17,4.84,13.25,8.63,13.58,8.47l.6-.29,17.67-8.6c.53-.21,1.21-.51,1.53-.68l10.65-5.26,10.68-5.2c.5-.24,1.16-.6,1.48-.8l17.62-8.7.6-.29c.33-.16,1.2-7.36,1.93-16.07l2.22-26.18c.07-.85.03-1.61-.01-2.37,8.87-6.47,17.41-13.38,25.6-20.69l4.27.75c.45.13.85.3,1.35.39l25.47,4.83c8.48,1.61,15.55,2.69,15.79,2.41l.43-.5,12.98-14.9c.41-.4.92-.95,1.15-1.23l7.8-9.05,7.84-9.01c.36-.42.84-1.01,1.05-1.32l12.9-14.97.44-.5c.24-.28-1.74-7.23-4.42-15.53l-8.05-24.93c-1.49-4.59-4.26-6.95-7.41-7.1.02-.03.04-.06.05-.09l-76,.18c-48.18,65.89-125.37,108.74-212.34,108.94-104.89.25-195.32-61.56-237.61-151.27l35.06-.08c38.64,71.48,113.65,119.82,199.96,119.62,85.66-.2,160.36-48.19,199.58-118.98h178.55c11.74,31.33,41.52,53.61,76.63,53.53,45.44-.11,82.36-37.5,82.47-83.52.11-46.02-36.64-83.25-82.08-83.14-39.32.09-72.22,28.12-80.44,65.49l-98.45.23h-56.84c6.06-20.74,9.37-42.67,9.42-65.37.29-127.7-101.68-230.99-227.77-230.7-126.09.29-228.54,104.06-228.83,231.76-.05,22.25,3.06,43.75,8.81,64.1h-32.95c-5.62-21.77-8.67-44.59-8.62-68.17.34-147.53,118.69-267.39,264.35-267.73,91.91-.21,172.7,47.25,219.74,119.35l73.98-.17c-3.75-7.69-7.82-15.19-12.12-22.53.08-.2.18-.34.25-.55l8.58-24.83c2.85-8.27,4.98-15.2,4.74-15.48l-.43-.51-12.58-15.12c-.21-.31-.67-.9-1.02-1.33l-7.65-9.1-7.61-9.14c-.23-.28-.73-.84-1.13-1.24l-12.66-15.05-.42-.51c-.24-.28-7.33.71-15.84,2.22l-25.57,4.52c-.42.07-.75.21-1.14.31-6.44-5.4-13.09-10.55-19.93-15.45,0-.27.03-.49,0-.77l-2.1-26.18c-.7-8.71-1.53-15.91-1.86-16.06l-.59-.29-17.58-8.62c-.32-.2-.98-.55-1.47-.79l-10.66-5.15-10.63-5.21c-.32-.17-1-.47-1.53-.67l-17.63-8.52-.59-.29c-.33-.16-6.42,3.66-13.62,8.53l-21.61,14.64c-.42.29-.73.6-1.1.9-11.19-3.13-22.63-5.68-34.27-7.6-.17-.34-.27-.67-.47-1.02l-13.12-22.6c-4.37-7.53-8.2-13.62-8.57-13.62h-.66s-19.57,0-19.57,0c-.37-.04-1.12-.07-1.67-.06l-11.83.06h-11.83c-.36-.01-1.11.02-1.67.07l-19.57.1h-.66c-.37,0-4.23,6.12-8.63,13.66l-13.23,22.67c-.38.65-.62,1.27-.89,1.9-11.36,2.1-22.52,4.78-33.44,8.03-.43-.37-.82-.75-1.34-1.1l-21.54-14.54c-7.17-4.84-13.25-8.63-13.58-8.47l-.6.29-17.67,8.61c-.35.13-1.04.43-1.53.68l-10.65,5.26-10.68,5.2c-.33.15-.99.51-1.48.8l-17.62,8.7-.6.29c-.33.16-1.2,7.36-1.93,16.07l-2.21,26.19c-.09.99-.06,1.9.02,2.77-7.71,5.72-15.15,11.77-22.33,18.13l-57.48-58.22c8.82-13.28,14-29.25,14.04-46.42C177.11,37.23,140.54.08,95.25,0h-.33Z"/>
    </clipPath>
    <linearGradient id="linear-gradient-2" x1="-14.18" y1="953.21" x2="-11.7" y2="953.21" gradientTransform="translate(-254020.86 3901.75) rotate(90) scale(267 -267)" gradientUnits="userSpaceOnUse">
      <stop offset="0" stop-color="#2f4beb"/>
      <stop offset=".02" stop-color="#2f4beb"/>
      <stop offset="1" stop-color="#172261"/>
    </linearGradient>
  </defs>
  <g class="cls-3">
    <rect class="cls-5" x="1.53" y="22.01" width="969.54" height="880.88" transform="translate(-1.61 1.7) rotate(-.2)"/>
  </g>
  <g class="cls-2">
    <rect class="cls-1" x="3.06" y="0" width="966.49" height="877.63"/>
  </g>
</svg>